<mxfile host="app.diagrams.net" agent="Mozilla/5.0 (Macintosh; Intel Mac OS X 10_15_7) AppleWebKit/537.36 (KHTML, like Gecko) Chrome/134.0.0.0 Safari/537.36" version="26.1.1">
  <diagram name="Page-1" id="GAWlH3N8oE_qb6CiAyrn">
    <mxGraphModel dx="1834" dy="517" grid="1" gridSize="10" guides="1" tooltips="1" connect="1" arrows="1" fold="1" page="1" pageScale="1" pageWidth="850" pageHeight="1100" math="0" shadow="0">
      <root>
        <mxCell id="0" />
        <mxCell id="1" parent="0" />
        <mxCell id="Zf0JhYOOQd0FaV_uQdlr-1" value="高光谱图像联合重建与复原" style="whiteSpace=wrap;strokeWidth=2;" vertex="1" parent="1">
          <mxGeometry x="338" y="60" width="188" height="54" as="geometry" />
        </mxCell>
        <mxCell id="Zf0JhYOOQd0FaV_uQdlr-2" value="即插即用专用降噪器设计" style="whiteSpace=wrap;strokeWidth=2;rounded=1;" vertex="1" parent="1">
          <mxGeometry x="80" y="164" width="140" height="54" as="geometry" />
        </mxCell>
        <mxCell id="Zf0JhYOOQd0FaV_uQdlr-3" value="重建与复原一体化模型" style="whiteSpace=wrap;strokeWidth=2;" vertex="1" parent="1">
          <mxGeometry x="362" y="164" width="140" height="54" as="geometry" />
        </mxCell>
        <mxCell id="Zf0JhYOOQd0FaV_uQdlr-4" value="微型片上计算光谱仪" style="whiteSpace=wrap;strokeWidth=2;" vertex="1" parent="1">
          <mxGeometry x="600" y="164" width="140" height="54" as="geometry" />
        </mxCell>
        <mxCell id="Zf0JhYOOQd0FaV_uQdlr-5" value="近端算子理论框架" style="whiteSpace=wrap;strokeWidth=2;" vertex="1" parent="1">
          <mxGeometry x="150" y="268" width="130" height="32" as="geometry" />
        </mxCell>
        <mxCell id="Zf0JhYOOQd0FaV_uQdlr-6" value="高光谱空间-光谱特性建模" style="whiteSpace=wrap;strokeWidth=2;" vertex="1" parent="1">
          <mxGeometry x="-10" y="372" width="161" height="28" as="geometry" />
        </mxCell>
        <mxCell id="Zf0JhYOOQd0FaV_uQdlr-8" value="解决非凸网络收敛性问题" style="whiteSpace=wrap;strokeWidth=2;" vertex="1" parent="1">
          <mxGeometry x="170" y="372" width="140" height="28" as="geometry" />
        </mxCell>
        <mxCell id="Zf0JhYOOQd0FaV_uQdlr-9" value="关键科学问题1:&#xa;深度降噪器→近端算子转化机理" style="whiteSpace=wrap;strokeWidth=2;" vertex="1" parent="1">
          <mxGeometry x="20" y="478" width="260" height="102" as="geometry" />
        </mxCell>
        <mxCell id="Zf0JhYOOQd0FaV_uQdlr-10" value="空间-光谱退化机制建模" style="whiteSpace=wrap;strokeWidth=2;" vertex="1" parent="1">
          <mxGeometry x="319" y="268" width="226" height="54" as="geometry" />
        </mxCell>
        <mxCell id="Zf0JhYOOQd0FaV_uQdlr-11" value="变量分裂技术实现" style="whiteSpace=wrap;strokeWidth=2;" vertex="1" parent="1">
          <mxGeometry x="338" y="372" width="188" height="54" as="geometry" />
        </mxCell>
        <mxCell id="Zf0JhYOOQd0FaV_uQdlr-12" value="深度近端降噪器集成" style="whiteSpace=wrap;strokeWidth=2;" vertex="1" parent="1">
          <mxGeometry x="330" y="476" width="204" height="54" as="geometry" />
        </mxCell>
        <mxCell id="Zf0JhYOOQd0FaV_uQdlr-13" value="重建-复原一体化求解" style="whiteSpace=wrap;strokeWidth=2;" vertex="1" parent="1">
          <mxGeometry x="327" y="580" width="210" height="54" as="geometry" />
        </mxCell>
        <mxCell id="Zf0JhYOOQd0FaV_uQdlr-14" value="关键科学问题2:&#xa;多先验融合模型构建" style="whiteSpace=wrap;strokeWidth=2;" vertex="1" parent="1">
          <mxGeometry x="330" y="684" width="204" height="78" as="geometry" />
        </mxCell>
        <mxCell id="Zf0JhYOOQd0FaV_uQdlr-15" value="病态性分析" style="whiteSpace=wrap;strokeWidth=2;" vertex="1" parent="1">
          <mxGeometry x="600" y="268" width="140" height="54" as="geometry" />
        </mxCell>
        <mxCell id="Zf0JhYOOQd0FaV_uQdlr-16" value="预条件矩阵设计" style="whiteSpace=wrap;strokeWidth=2;" vertex="1" parent="1">
          <mxGeometry x="584" y="372" width="172" height="54" as="geometry" />
        </mxCell>
        <mxCell id="Zf0JhYOOQd0FaV_uQdlr-17" value="自适应步长策略" style="whiteSpace=wrap;strokeWidth=2;" vertex="1" parent="1">
          <mxGeometry x="584" y="476" width="172" height="54" as="geometry" />
        </mxCell>
        <mxCell id="Zf0JhYOOQd0FaV_uQdlr-18" value="计算效率优化" style="whiteSpace=wrap;strokeWidth=2;" vertex="1" parent="1">
          <mxGeometry x="592" y="580" width="156" height="54" as="geometry" />
        </mxCell>
        <mxCell id="Zf0JhYOOQd0FaV_uQdlr-19" value="数值稳定性增强" style="whiteSpace=wrap;strokeWidth=2;" vertex="1" parent="1">
          <mxGeometry x="584" y="708" width="172" height="54" as="geometry" />
        </mxCell>
        <mxCell id="Zf0JhYOOQd0FaV_uQdlr-20" value="关键科学问题3:&#xa;微型片上算法设计" style="whiteSpace=wrap;strokeWidth=2;" vertex="1" parent="1">
          <mxGeometry x="576" y="836" width="188" height="78" as="geometry" />
        </mxCell>
        <mxCell id="Zf0JhYOOQd0FaV_uQdlr-22" value="" style="curved=1;startArrow=none;endArrow=block;exitX=0;exitY=0.82;entryX=0.5;entryY=0;rounded=0;" edge="1" parent="1" source="Zf0JhYOOQd0FaV_uQdlr-1" target="Zf0JhYOOQd0FaV_uQdlr-2">
          <mxGeometry relative="1" as="geometry">
            <Array as="points">
              <mxPoint x="150" y="139" />
            </Array>
          </mxGeometry>
        </mxCell>
        <mxCell id="Zf0JhYOOQd0FaV_uQdlr-23" value="" style="curved=1;startArrow=none;endArrow=block;exitX=0.5;exitY=1;entryX=0.5;entryY=0;rounded=0;" edge="1" parent="1" source="Zf0JhYOOQd0FaV_uQdlr-1" target="Zf0JhYOOQd0FaV_uQdlr-3">
          <mxGeometry relative="1" as="geometry">
            <Array as="points" />
          </mxGeometry>
        </mxCell>
        <mxCell id="Zf0JhYOOQd0FaV_uQdlr-24" value="" style="curved=1;startArrow=none;endArrow=block;exitX=1;exitY=0.88;entryX=0.5;entryY=0;rounded=0;" edge="1" parent="1" source="Zf0JhYOOQd0FaV_uQdlr-1" target="Zf0JhYOOQd0FaV_uQdlr-4">
          <mxGeometry relative="1" as="geometry">
            <Array as="points">
              <mxPoint x="670" y="139" />
            </Array>
          </mxGeometry>
        </mxCell>
        <mxCell id="Zf0JhYOOQd0FaV_uQdlr-25" value="" style="startArrow=none;endArrow=block;exitX=0.5;exitY=1;entryX=0.5;entryY=0;rounded=0;edgeStyle=orthogonalEdgeStyle;" edge="1" parent="1" source="Zf0JhYOOQd0FaV_uQdlr-2" target="Zf0JhYOOQd0FaV_uQdlr-5">
          <mxGeometry relative="1" as="geometry" />
        </mxCell>
        <mxCell id="Zf0JhYOOQd0FaV_uQdlr-26" value="" style="curved=1;startArrow=none;endArrow=block;exitX=0.5;exitY=1;rounded=0;" edge="1" parent="1" source="Zf0JhYOOQd0FaV_uQdlr-5">
          <mxGeometry relative="1" as="geometry">
            <Array as="points" />
            <mxPoint x="230" y="360" as="targetPoint" />
          </mxGeometry>
        </mxCell>
        <mxCell id="Zf0JhYOOQd0FaV_uQdlr-27" value="" style="curved=1;startArrow=none;endArrow=block;exitX=0.5;exitY=1;rounded=0;" edge="1" parent="1" source="Zf0JhYOOQd0FaV_uQdlr-6">
          <mxGeometry relative="1" as="geometry">
            <Array as="points" />
            <mxPoint x="80" y="470" as="targetPoint" />
          </mxGeometry>
        </mxCell>
        <mxCell id="Zf0JhYOOQd0FaV_uQdlr-29" value="" style="curved=1;dashed=1;dashPattern=2 3;startArrow=none;endArrow=block;exitX=0.5;exitY=1;entryX=0.5;entryY=0;rounded=0;" edge="1" parent="1" source="Zf0JhYOOQd0FaV_uQdlr-8" target="Zf0JhYOOQd0FaV_uQdlr-9">
          <mxGeometry relative="1" as="geometry">
            <Array as="points" />
          </mxGeometry>
        </mxCell>
        <mxCell id="Zf0JhYOOQd0FaV_uQdlr-30" value="" style="curved=1;startArrow=none;endArrow=block;exitX=0.5;exitY=1;entryX=0.5;entryY=0;rounded=0;" edge="1" parent="1" source="Zf0JhYOOQd0FaV_uQdlr-3" target="Zf0JhYOOQd0FaV_uQdlr-10">
          <mxGeometry relative="1" as="geometry">
            <Array as="points" />
          </mxGeometry>
        </mxCell>
        <mxCell id="Zf0JhYOOQd0FaV_uQdlr-31" value="" style="curved=1;startArrow=none;endArrow=block;exitX=0.5;exitY=1;entryX=0.5;entryY=0;rounded=0;" edge="1" parent="1" source="Zf0JhYOOQd0FaV_uQdlr-10" target="Zf0JhYOOQd0FaV_uQdlr-11">
          <mxGeometry relative="1" as="geometry">
            <Array as="points" />
          </mxGeometry>
        </mxCell>
        <mxCell id="Zf0JhYOOQd0FaV_uQdlr-32" value="" style="curved=1;startArrow=none;endArrow=block;exitX=0.5;exitY=1;entryX=0.5;entryY=0;rounded=0;" edge="1" parent="1" source="Zf0JhYOOQd0FaV_uQdlr-11" target="Zf0JhYOOQd0FaV_uQdlr-12">
          <mxGeometry relative="1" as="geometry">
            <Array as="points" />
          </mxGeometry>
        </mxCell>
        <mxCell id="Zf0JhYOOQd0FaV_uQdlr-33" value="" style="curved=1;startArrow=none;endArrow=block;exitX=0.5;exitY=1;entryX=0.5;entryY=0;rounded=0;" edge="1" parent="1" source="Zf0JhYOOQd0FaV_uQdlr-12" target="Zf0JhYOOQd0FaV_uQdlr-13">
          <mxGeometry relative="1" as="geometry">
            <Array as="points" />
          </mxGeometry>
        </mxCell>
        <mxCell id="Zf0JhYOOQd0FaV_uQdlr-34" value="" style="curved=1;dashed=1;dashPattern=2 3;startArrow=none;endArrow=block;exitX=0.5;exitY=1;entryX=0.5;entryY=0;rounded=0;" edge="1" parent="1" source="Zf0JhYOOQd0FaV_uQdlr-13" target="Zf0JhYOOQd0FaV_uQdlr-14">
          <mxGeometry relative="1" as="geometry">
            <Array as="points" />
          </mxGeometry>
        </mxCell>
        <mxCell id="Zf0JhYOOQd0FaV_uQdlr-35" value="" style="curved=1;startArrow=none;endArrow=block;exitX=0.5;exitY=1;entryX=0.5;entryY=0;rounded=0;" edge="1" parent="1" source="Zf0JhYOOQd0FaV_uQdlr-4" target="Zf0JhYOOQd0FaV_uQdlr-15">
          <mxGeometry relative="1" as="geometry">
            <Array as="points" />
          </mxGeometry>
        </mxCell>
        <mxCell id="Zf0JhYOOQd0FaV_uQdlr-36" value="" style="curved=1;startArrow=none;endArrow=block;exitX=0.5;exitY=1;entryX=0.5;entryY=0;rounded=0;" edge="1" parent="1" source="Zf0JhYOOQd0FaV_uQdlr-15" target="Zf0JhYOOQd0FaV_uQdlr-16">
          <mxGeometry relative="1" as="geometry">
            <Array as="points" />
          </mxGeometry>
        </mxCell>
        <mxCell id="Zf0JhYOOQd0FaV_uQdlr-37" value="" style="curved=1;startArrow=none;endArrow=block;exitX=0.5;exitY=1;entryX=0.5;entryY=0;rounded=0;" edge="1" parent="1" source="Zf0JhYOOQd0FaV_uQdlr-16" target="Zf0JhYOOQd0FaV_uQdlr-17">
          <mxGeometry relative="1" as="geometry">
            <Array as="points" />
          </mxGeometry>
        </mxCell>
        <mxCell id="Zf0JhYOOQd0FaV_uQdlr-38" value="" style="curved=1;startArrow=none;endArrow=block;exitX=0.5;exitY=1;entryX=0.5;entryY=0;rounded=0;" edge="1" parent="1" source="Zf0JhYOOQd0FaV_uQdlr-17" target="Zf0JhYOOQd0FaV_uQdlr-18">
          <mxGeometry relative="1" as="geometry">
            <Array as="points" />
          </mxGeometry>
        </mxCell>
        <mxCell id="Zf0JhYOOQd0FaV_uQdlr-39" value="" style="curved=1;startArrow=none;endArrow=block;exitX=0.5;exitY=1;entryX=0.5;entryY=0;rounded=0;" edge="1" parent="1" source="Zf0JhYOOQd0FaV_uQdlr-18" target="Zf0JhYOOQd0FaV_uQdlr-19">
          <mxGeometry relative="1" as="geometry">
            <Array as="points" />
          </mxGeometry>
        </mxCell>
        <mxCell id="Zf0JhYOOQd0FaV_uQdlr-40" value="" style="curved=1;dashed=1;dashPattern=2 3;startArrow=none;endArrow=block;exitX=0.5;exitY=1;entryX=0.5;entryY=0;rounded=0;" edge="1" parent="1" source="Zf0JhYOOQd0FaV_uQdlr-19" target="Zf0JhYOOQd0FaV_uQdlr-20">
          <mxGeometry relative="1" as="geometry">
            <Array as="points" />
          </mxGeometry>
        </mxCell>
        <mxCell id="Zf0JhYOOQd0FaV_uQdlr-43" value="高光谱降噪器" style="whiteSpace=wrap;strokeWidth=2;" vertex="1" parent="1">
          <mxGeometry x="-10" y="268" width="130" height="32" as="geometry" />
        </mxCell>
      </root>
    </mxGraphModel>
  </diagram>
</mxfile>
